<?xml version="1.0" encoding="iso-8859-1"?>
<!-- Generator: Adobe Illustrator 19.0.0, SVG Export Plug-In . SVG Version: 6.00 Build 0)  -->
<svg version="1.1" id="Capa_1" xmlns="http://www.w3.org/2000/svg" xmlns:xlink="http://www.w3.org/1999/xlink" x="0px" y="0px"
	 viewBox="0 0 512 512" style="enable-background:new 0 0 512 512;" xml:space="preserve">
<g>
	<g>
		<path d="M347,76h-61c-24.507,0-46.306,11.814-60,30.047C212.306,87.814,190.507,76,166,76h-60c-8.284,0-15,6.716-15,15v180
			c0,8.284,6.716,15,15,15h90c8.271,0,15,6.729,15,15c0,8.284,6.716,15,15,15s15-6.716,15-15c0-8.271,6.729-15,15-15h91
			c8.284,0,15-6.716,15-15V91C362,82.716,355.284,76,347,76z M211,258.57c-4.693-1.664-9.743-2.57-15-2.57h-75V106h45
			c24.813,0,45,20.187,45,45V258.57z M332,256h-76c-5.257,0-10.307,0.906-15,2.57V151c0-24.813,20.187-45,45-45h46V256z"/>
	</g>
</g>
<g>
	<g>
		<path d="M467,76h-15V61c0-24.813-20.187-45-45-45H45C20.187,16,0,36.187,0,61v270c0,24.813,20.187,45,45,45h16v45
			c0,6.067,3.654,11.536,9.26,13.858c5.604,2.322,12.057,1.038,16.347-3.251l34.783-34.783C124.256,418.894,143.161,436,166,436
			h204.787l55.606,55.607c4.29,4.291,10.742,5.573,16.347,3.251c5.605-2.322,9.26-7.791,9.26-13.858v-45h15
			c24.813,0,45-20.187,45-45V121C512,96.187,491.813,76,467,76z M125.397,350.39c-0.001,0.001-0.002,0.002-0.004,0.003L91,384.786
			V361c0-8.284-6.716-15-15-15H45c-8.271,0-15-6.729-15-15V61c0-8.271,6.729-15,15-15h362c8.271,0,15,6.729,15,15v270
			c0,8.271-6.729,15-15,15H136C131.943,346,128.101,347.687,125.397,350.39z M482,391c0,8.271-6.729,15-15,15h-30
			c-8.284,0-15,6.716-15,15v23.787l-34.394-34.394C384.794,407.58,380.979,406,377,406H166c-8.271,0-15-6.729-15-15v-15h256
			c24.813,0,45-20.187,45-45V106h15c8.271,0,15,6.729,15,15V391z"/>
	</g>
</g>
<g>
</g>
<g>
</g>
<g>
</g>
<g>
</g>
<g>
</g>
<g>
</g>
<g>
</g>
<g>
</g>
<g>
</g>
<g>
</g>
<g>
</g>
<g>
</g>
<g>
</g>
<g>
</g>
<g>
</g>
</svg>
